<?xml version="1.0" standalone="no"?>
<!DOCTYPE svg PUBLIC "-//W3C//DTD SVG 20010904//EN"
 "http://www.w3.org/TR/2001/REC-SVG-20010904/DTD/svg10.dtd">
<svg version="1.0" xmlns="http://www.w3.org/2000/svg"
 width="349.000000pt" height="349.000000pt" viewBox="0 0 349.000000 349.000000"
 preserveAspectRatio="xMidYMid meet">
<metadata>
Created by potrace 1.11, written by Peter Selinger 2001-2013
</metadata>
<g transform="translate(0.000000,349.000000) scale(0.100000,-0.100000)"
fill="#000000" stroke="none">
<path d="M655 3461 c-22 -16 -54 -37 -72 -47 -18 -11 -133 -84 -257 -164
l-225 -144 1 -238 c1 -130 4 -235 8 -233 4 2 20 7 36 10 16 3 79 18 141 33 65
17 116 25 121 20 5 -5 24 0 46 12 20 12 36 20 37 18 0 -1 2 -10 4 -18 2 -8 7
-28 10 -44 3 -16 9 -34 12 -39 6 -9 -19 -6 -69 9 -11 3 -18 0 -19 -8 0 -7 -2
-20 -5 -28 -119 -432 -168 -742 -139 -875 26 -114 162 -349 388 -669 l69 -98
-25 -87 c-43 -141 -83 -321 -104 -456 -2 -16 -8 -55 -14 -85 -5 -30 -13 -117
-16 -193 l-6 -137 727 0 c399 0 726 2 726 3 0 2 -23 42 -50 88 -64 106 -132
244 -165 334 -45 121 -126 387 -121 393 3 2 25 -2 48 -11 163 -59 422 -129
526 -142 31 -4 74 -2 105 5 184 44 479 277 701 553 l78 98 -25 27 -25 27 67
33 c46 22 89 55 139 105 l73 73 -3 67 -3 66 -45 -27 c-25 -15 -72 -38 -105
-51 -107 -42 -141 -67 -175 -127 l-32 -55 -22 21 -23 20 -94 -53 c-226 -128
-443 -228 -547 -253 -57 -13 -147 -1 -214 30 -27 12 -92 39 -113 47 -2 1 -32
15 -65 33 l-62 31 0 75 c0 88 -17 194 -54 334 -32 122 -42 176 -50 281 -10
138 -44 224 -121 307 -193 205 -538 173 -689 -64 -34 -53 -65 -152 -68 -217
-11 -228 171 -437 395 -454 52 -4 127 -37 154 -67 10 -11 18 -34 17 -51 -1
-57 -9 -59 -165 -53 -152 7 -148 5 -227 73 -14 12 -50 43 -80 69 -152 130
-252 229 -292 292 l-29 45 4 337 5 337 -28 10 -28 9 24 49 c31 64 38 103 27
156 l-10 44 165 104 c90 57 169 107 175 110 11 8 3 22 -108 194 -39 61 -86
133 -104 162 -22 33 -44 56 -64 62 -16 6 -30 11 -31 11 -1 -1 -19 -14 -41 -29z"/>
</g>
</svg>
